<mxfile host="Electron" agent="Mozilla/5.0 (Windows NT 10.0; Win64; x64) AppleWebKit/537.36 (KHTML, like Gecko) draw.io/24.7.8 Chrome/128.0.6613.36 Electron/32.0.1 Safari/537.36" version="24.7.8">
  <diagram id="XOnag8xoFiaOOmy9v_93" name="Page-1">
    <mxGraphModel dx="1397" dy="817" grid="1" gridSize="10" guides="1" tooltips="1" connect="1" arrows="1" fold="1" page="1" pageScale="1" pageWidth="2336" pageHeight="1654" math="0" shadow="0">
      <root>
        <mxCell id="_vKOgibNYJb6RkX7hGH7-0" />
        <mxCell id="_vKOgibNYJb6RkX7hGH7-1" parent="_vKOgibNYJb6RkX7hGH7-0" />
        <mxCell id="_vKOgibNYJb6RkX7hGH7-7" value="Usuario registrado" style="shape=umlActor;verticalLabelPosition=bottom;verticalAlign=top;html=1;fontFamily=Helvetica;fontSize=12;align=center;strokeColor=#000000;strokeWidth=1;fillColor=#d5e8d4;" parent="_vKOgibNYJb6RkX7hGH7-1" vertex="1">
          <mxGeometry x="810" y="730" width="30" height="60" as="geometry" />
        </mxCell>
        <mxCell id="_vKOgibNYJb6RkX7hGH7-8" value="&lt;font color=&quot;#000000&quot;&gt;CU2:&lt;/font&gt;&lt;div&gt;&lt;font color=&quot;#000000&quot;&gt;Logout&lt;/font&gt;&lt;/div&gt;" style="ellipse;whiteSpace=wrap;html=1;rounded=1;strokeWidth=1;fontSize=12;fillColor=#d5e8d4;strokeColor=#000000;" parent="_vKOgibNYJb6RkX7hGH7-1" vertex="1">
          <mxGeometry x="920" y="730" width="120" height="50" as="geometry" />
        </mxCell>
        <mxCell id="_vKOgibNYJb6RkX7hGH7-25" value="&lt;font color=&quot;#000000&quot;&gt;CU12:&lt;/font&gt;&lt;div&gt;&lt;font color=&quot;#000000&quot;&gt;Reservar fechas&lt;/font&gt;&lt;/div&gt;" style="ellipse;whiteSpace=wrap;html=1;rounded=1;strokeWidth=1;fontSize=12;fillColor=#d5e8d4;strokeColor=#000000;" parent="_vKOgibNYJb6RkX7hGH7-1" vertex="1">
          <mxGeometry x="1140" y="560" width="120" height="50" as="geometry" />
        </mxCell>
        <mxCell id="_vKOgibNYJb6RkX7hGH7-36" style="edgeStyle=none;rounded=0;orthogonalLoop=1;jettySize=auto;html=1;exitX=0;exitY=1;exitDx=0;exitDy=-15;exitPerimeter=0;dashed=1;dashPattern=1 4;fontSize=12;fontColor=#000000;strokeColor=#000000;" parent="_vKOgibNYJb6RkX7hGH7-1" edge="1">
          <mxGeometry relative="1" as="geometry">
            <mxPoint x="1436" y="681" as="sourcePoint" />
            <mxPoint x="1436" y="681" as="targetPoint" />
          </mxGeometry>
        </mxCell>
        <mxCell id="_vKOgibNYJb6RkX7hGH7-37" value="&lt;font color=&quot;#000000&quot;&gt;Sistema&lt;/font&gt;&lt;div&gt;&lt;br&gt;&lt;/div&gt;" style="shape=umlActor;verticalLabelPosition=bottom;verticalAlign=top;html=1;outlineConnect=0;rounded=1;strokeWidth=1;fillColor=#dae8fc;strokeColor=#000000;" parent="_vKOgibNYJb6RkX7hGH7-1" vertex="1">
          <mxGeometry x="1306" y="696" width="30" height="60" as="geometry" />
        </mxCell>
        <mxCell id="_vKOgibNYJb6RkX7hGH7-40" value="&lt;span style=&quot;color: rgb(0, 0, 0);&quot;&gt;CU11:&lt;/span&gt;&lt;div&gt;&lt;span style=&quot;color: rgb(0, 0, 0);&quot;&gt;Obtener fechas disponibles&lt;/span&gt;&lt;/div&gt;" style="ellipse;whiteSpace=wrap;html=1;rounded=1;strokeWidth=1;fontSize=12;fillColor=#d5e8d4;strokeColor=#000000;" parent="_vKOgibNYJb6RkX7hGH7-1" vertex="1">
          <mxGeometry x="920" y="610" width="120" height="50" as="geometry" />
        </mxCell>
        <mxCell id="_vKOgibNYJb6RkX7hGH7-115" style="edgeStyle=none;rounded=0;jumpStyle=arc;orthogonalLoop=1;jettySize=auto;html=1;dashed=1;dashPattern=1 4;startArrow=none;startFill=0;endArrow=classic;endFill=1;fontSize=12;fontColor=#000000;strokeColor=#000000;" parent="_vKOgibNYJb6RkX7hGH7-1" source="_vKOgibNYJb6RkX7hGH7-41" target="_vKOgibNYJb6RkX7hGH7-8" edge="1">
          <mxGeometry relative="1" as="geometry">
            <Array as="points">
              <mxPoint x="1080" y="886" />
              <mxPoint x="1070" y="820" />
              <mxPoint x="990" y="770" />
            </Array>
          </mxGeometry>
        </mxCell>
        <mxCell id="_vKOgibNYJb6RkX7hGH7-116" value="&lt;font color=&quot;#000000&quot;&gt;precedes&lt;/font&gt;" style="edgeLabel;html=1;align=center;verticalAlign=middle;resizable=0;points=[];fontSize=12;strokeColor=#000000;" parent="_vKOgibNYJb6RkX7hGH7-115" vertex="1" connectable="0">
          <mxGeometry x="-0.6434" y="-1" relative="1" as="geometry">
            <mxPoint x="-28" y="-9" as="offset" />
          </mxGeometry>
        </mxCell>
        <mxCell id="_vKOgibNYJb6RkX7hGH7-41" value="&lt;font color=&quot;#000000&quot;&gt;CU1:&lt;/font&gt;&lt;div&gt;&lt;font color=&quot;#000000&quot;&gt;Login&lt;/font&gt;&lt;/div&gt;" style="ellipse;whiteSpace=wrap;html=1;rounded=1;strokeWidth=1;fontSize=12;fillColor=#d5e8d4;strokeColor=#000000;" parent="_vKOgibNYJb6RkX7hGH7-1" vertex="1">
          <mxGeometry x="940" y="885" width="120" height="50" as="geometry" />
        </mxCell>
        <mxCell id="_vKOgibNYJb6RkX7hGH7-24" style="edgeStyle=none;rounded=0;orthogonalLoop=1;jettySize=auto;html=1;fontSize=12;fontColor=#000000;strokeColor=#000000;" parent="_vKOgibNYJb6RkX7hGH7-1" source="_vKOgibNYJb6RkX7hGH7-7" target="_vKOgibNYJb6RkX7hGH7-8" edge="1">
          <mxGeometry relative="1" as="geometry" />
        </mxCell>
        <mxCell id="_vKOgibNYJb6RkX7hGH7-47" style="edgeStyle=none;rounded=0;orthogonalLoop=1;jettySize=auto;html=1;fontSize=12;fontColor=#000000;strokeColor=#000000;" parent="_vKOgibNYJb6RkX7hGH7-1" source="_vKOgibNYJb6RkX7hGH7-7" target="_vKOgibNYJb6RkX7hGH7-40" edge="1">
          <mxGeometry relative="1" as="geometry" />
        </mxCell>
        <mxCell id="TgJ1OVLbd7r7_8nmqH_q-0" value="&lt;font color=&quot;#000000&quot;&gt;Cliente&lt;/font&gt;" style="shape=umlActor;verticalLabelPosition=bottom;verticalAlign=top;html=1;fontFamily=Helvetica;fontSize=12;align=center;strokeColor=#000000;strokeWidth=1;fillColor=#d5e8d4;" parent="_vKOgibNYJb6RkX7hGH7-1" vertex="1">
          <mxGeometry x="805" y="840" width="30" height="60" as="geometry" />
        </mxCell>
        <mxCell id="TgJ1OVLbd7r7_8nmqH_q-3" value="&lt;font color=&quot;#000000&quot;&gt;Usuario&lt;/font&gt;" style="shape=umlActor;verticalLabelPosition=bottom;verticalAlign=top;html=1;fontFamily=Helvetica;fontSize=12;align=center;strokeColor=#000000;strokeWidth=1;fillColor=#d5e8d4;" parent="_vKOgibNYJb6RkX7hGH7-1" vertex="1">
          <mxGeometry x="700" y="960" width="30" height="60" as="geometry" />
        </mxCell>
        <mxCell id="TgJ1OVLbd7r7_8nmqH_q-4" value="&lt;font color=&quot;#000000&quot;&gt;Gestor&lt;/font&gt;" style="shape=umlActor;verticalLabelPosition=bottom;verticalAlign=top;html=1;fontFamily=Helvetica;fontSize=12;align=center;strokeColor=#000000;strokeWidth=1;fillColor=#d5e8d4;" parent="_vKOgibNYJb6RkX7hGH7-1" vertex="1">
          <mxGeometry x="805" y="487" width="30" height="60" as="geometry" />
        </mxCell>
        <mxCell id="TgJ1OVLbd7r7_8nmqH_q-8" value="&lt;font color=&quot;#000000&quot;&gt;CU13:&lt;/font&gt;&lt;div&gt;&lt;font color=&quot;#000000&quot;&gt;Obtener clima&lt;/font&gt;&lt;/div&gt;" style="ellipse;whiteSpace=wrap;html=1;rounded=1;strokeWidth=1;fontSize=12;fillColor=#d5e8d4;strokeColor=#000000;" parent="_vKOgibNYJb6RkX7hGH7-1" vertex="1">
          <mxGeometry x="1147.25" y="620" width="120" height="50" as="geometry" />
        </mxCell>
        <mxCell id="TgJ1OVLbd7r7_8nmqH_q-10" style="edgeStyle=none;rounded=0;jumpStyle=arc;orthogonalLoop=1;jettySize=auto;html=1;dashed=1;dashPattern=1 4;fontSize=12;fontColor=#000000;strokeColor=#000000;exitX=1;exitY=1;exitDx=0;exitDy=0;entryX=-0.012;entryY=0.335;entryDx=0;entryDy=0;entryPerimeter=0;" parent="_vKOgibNYJb6RkX7hGH7-1" source="_vKOgibNYJb6RkX7hGH7-40" target="TgJ1OVLbd7r7_8nmqH_q-47" edge="1">
          <mxGeometry relative="1" as="geometry">
            <mxPoint x="1299.9086165519034" y="818.1817233103807" as="sourcePoint" />
            <mxPoint x="1391.9086165519034" y="800.1817233103807" as="targetPoint" />
          </mxGeometry>
        </mxCell>
        <mxCell id="TgJ1OVLbd7r7_8nmqH_q-11" value="&lt;font color=&quot;#000000&quot;&gt;includes&lt;/font&gt;" style="edgeLabel;html=1;align=center;verticalAlign=middle;resizable=0;points=[];fontSize=12;strokeColor=#000000;" parent="TgJ1OVLbd7r7_8nmqH_q-10" vertex="1" connectable="0">
          <mxGeometry x="-0.4653" y="2" relative="1" as="geometry">
            <mxPoint x="15" y="17" as="offset" />
          </mxGeometry>
        </mxCell>
        <mxCell id="TgJ1OVLbd7r7_8nmqH_q-16" style="rounded=0;jumpStyle=arc;orthogonalLoop=1;jettySize=auto;html=1;fontSize=12;fontColor=#000000;dashed=1;dashPattern=1 4;strokeColor=#000000;entryX=1;entryY=0;entryDx=0;entryDy=0;exitX=0;exitY=0.5;exitDx=0;exitDy=0;" parent="_vKOgibNYJb6RkX7hGH7-1" source="_vKOgibNYJb6RkX7hGH7-25" target="_vKOgibNYJb6RkX7hGH7-40" edge="1">
          <mxGeometry relative="1" as="geometry">
            <mxPoint x="1395.5735931288073" y="829.3223304703365" as="sourcePoint" />
            <mxPoint x="1299.5735931288073" y="790.3223304703365" as="targetPoint" />
          </mxGeometry>
        </mxCell>
        <mxCell id="TgJ1OVLbd7r7_8nmqH_q-17" value="&lt;font color=&quot;#000000&quot;&gt;extends&lt;/font&gt;" style="edgeLabel;html=1;align=center;verticalAlign=middle;resizable=0;points=[];strokeColor=#000000;" parent="TgJ1OVLbd7r7_8nmqH_q-16" vertex="1" connectable="0">
          <mxGeometry x="-0.4243" relative="1" as="geometry">
            <mxPoint x="-12" y="-9" as="offset" />
          </mxGeometry>
        </mxCell>
        <mxCell id="TgJ1OVLbd7r7_8nmqH_q-19" value="&lt;font color=&quot;#000000&quot;&gt;CU4:&lt;/font&gt;&lt;div&gt;&lt;font color=&quot;#000000&quot;&gt;Obtener informaciÃ³n de la casa&lt;/font&gt;&lt;/div&gt;" style="ellipse;whiteSpace=wrap;html=1;rounded=1;strokeWidth=1;fontSize=12;fillColor=#d5e8d4;strokeColor=#000000;" parent="_vKOgibNYJb6RkX7hGH7-1" vertex="1">
          <mxGeometry x="940" y="1000" width="120" height="50" as="geometry" />
        </mxCell>
        <mxCell id="TgJ1OVLbd7r7_8nmqH_q-20" style="edgeStyle=none;rounded=0;orthogonalLoop=1;jettySize=auto;html=1;fontSize=12;fontColor=#000000;strokeColor=#000000;entryX=0;entryY=0.5;entryDx=0;entryDy=0;" parent="_vKOgibNYJb6RkX7hGH7-1" source="TgJ1OVLbd7r7_8nmqH_q-3" target="_vKOgibNYJb6RkX7hGH7-41" edge="1">
          <mxGeometry relative="1" as="geometry">
            <mxPoint x="850" y="768" as="sourcePoint" />
            <mxPoint x="934" y="754" as="targetPoint" />
          </mxGeometry>
        </mxCell>
        <mxCell id="TgJ1OVLbd7r7_8nmqH_q-21" style="edgeStyle=none;rounded=0;orthogonalLoop=1;jettySize=auto;html=1;fontSize=12;fontColor=#000000;strokeColor=#000000;entryX=0;entryY=0.5;entryDx=0;entryDy=0;exitX=0.5;exitY=0.5;exitDx=0;exitDy=0;exitPerimeter=0;" parent="_vKOgibNYJb6RkX7hGH7-1" source="TgJ1OVLbd7r7_8nmqH_q-3" target="TgJ1OVLbd7r7_8nmqH_q-19" edge="1">
          <mxGeometry relative="1" as="geometry">
            <mxPoint x="850" y="981" as="sourcePoint" />
            <mxPoint x="950" y="920" as="targetPoint" />
          </mxGeometry>
        </mxCell>
        <mxCell id="TgJ1OVLbd7r7_8nmqH_q-22" value="&lt;font color=&quot;#000000&quot;&gt;CU18:&lt;/font&gt;&lt;div&gt;&lt;font color=&quot;#000000&quot;&gt;Confirmar reserva&lt;/font&gt;&lt;/div&gt;" style="ellipse;whiteSpace=wrap;html=1;rounded=1;strokeWidth=1;fontSize=12;fillColor=#d5e8d4;strokeColor=#000000;" parent="_vKOgibNYJb6RkX7hGH7-1" vertex="1">
          <mxGeometry x="1110" y="492" width="120" height="50" as="geometry" />
        </mxCell>
        <mxCell id="TgJ1OVLbd7r7_8nmqH_q-23" value="&lt;font color=&quot;#000000&quot;&gt;CU17:&lt;/font&gt;&lt;div&gt;&lt;font color=&quot;#000000&quot;&gt;Denegar reserva&lt;/font&gt;&lt;/div&gt;" style="ellipse;whiteSpace=wrap;html=1;rounded=1;strokeWidth=1;fontSize=12;fillColor=#d5e8d4;strokeColor=#000000;" parent="_vKOgibNYJb6RkX7hGH7-1" vertex="1">
          <mxGeometry x="1110" y="427" width="120" height="50" as="geometry" />
        </mxCell>
        <mxCell id="TgJ1OVLbd7r7_8nmqH_q-24" value="&lt;font color=&quot;#000000&quot;&gt;CU16:&lt;/font&gt;&lt;div&gt;&lt;font color=&quot;#000000&quot;&gt;Consultar reservas pendientes&lt;/font&gt;&lt;/div&gt;" style="ellipse;whiteSpace=wrap;html=1;rounded=1;strokeWidth=1;fontSize=12;fillColor=#d5e8d4;strokeColor=#000000;" parent="_vKOgibNYJb6RkX7hGH7-1" vertex="1">
          <mxGeometry x="890" y="477" width="120" height="50" as="geometry" />
        </mxCell>
        <mxCell id="TgJ1OVLbd7r7_8nmqH_q-25" style="rounded=0;jumpStyle=arc;orthogonalLoop=1;jettySize=auto;html=1;fontSize=12;fontColor=#000000;dashed=1;dashPattern=1 4;strokeColor=#000000;exitX=0;exitY=0.5;exitDx=0;exitDy=0;" parent="_vKOgibNYJb6RkX7hGH7-1" source="TgJ1OVLbd7r7_8nmqH_q-22" target="TgJ1OVLbd7r7_8nmqH_q-24" edge="1">
          <mxGeometry relative="1" as="geometry">
            <mxPoint x="1088" y="437" as="sourcePoint" />
            <mxPoint x="990" y="459" as="targetPoint" />
          </mxGeometry>
        </mxCell>
        <mxCell id="TgJ1OVLbd7r7_8nmqH_q-26" value="&lt;font color=&quot;#000000&quot;&gt;extends&lt;/font&gt;" style="edgeLabel;html=1;align=center;verticalAlign=middle;resizable=0;points=[];strokeColor=#000000;" parent="TgJ1OVLbd7r7_8nmqH_q-25" vertex="1" connectable="0">
          <mxGeometry x="-0.4243" relative="1" as="geometry">
            <mxPoint y="10" as="offset" />
          </mxGeometry>
        </mxCell>
        <mxCell id="TgJ1OVLbd7r7_8nmqH_q-27" style="rounded=0;jumpStyle=arc;orthogonalLoop=1;jettySize=auto;html=1;fontSize=12;fontColor=#000000;dashed=1;dashPattern=1 4;strokeColor=#000000;exitX=0;exitY=0.5;exitDx=0;exitDy=0;entryX=1;entryY=0;entryDx=0;entryDy=0;" parent="_vKOgibNYJb6RkX7hGH7-1" source="TgJ1OVLbd7r7_8nmqH_q-23" target="TgJ1OVLbd7r7_8nmqH_q-24" edge="1">
          <mxGeometry relative="1" as="geometry">
            <mxPoint x="1118" y="482" as="sourcePoint" />
            <mxPoint x="1015" y="502" as="targetPoint" />
          </mxGeometry>
        </mxCell>
        <mxCell id="TgJ1OVLbd7r7_8nmqH_q-28" value="&lt;font color=&quot;#000000&quot;&gt;extends&lt;/font&gt;" style="edgeLabel;html=1;align=center;verticalAlign=middle;resizable=0;points=[];strokeColor=#000000;" parent="TgJ1OVLbd7r7_8nmqH_q-27" vertex="1" connectable="0">
          <mxGeometry x="-0.4243" relative="1" as="geometry">
            <mxPoint y="10" as="offset" />
          </mxGeometry>
        </mxCell>
        <mxCell id="TgJ1OVLbd7r7_8nmqH_q-29" style="edgeStyle=none;rounded=0;orthogonalLoop=1;jettySize=auto;html=1;fontSize=12;fontColor=#000000;strokeColor=#000000;entryX=-0.012;entryY=0.649;entryDx=0;entryDy=0;entryPerimeter=0;" parent="_vKOgibNYJb6RkX7hGH7-1" source="TgJ1OVLbd7r7_8nmqH_q-4" target="TgJ1OVLbd7r7_8nmqH_q-24" edge="1">
          <mxGeometry relative="1" as="geometry">
            <mxPoint x="840" y="598" as="sourcePoint" />
            <mxPoint x="952" y="507" as="targetPoint" />
          </mxGeometry>
        </mxCell>
        <mxCell id="TgJ1OVLbd7r7_8nmqH_q-32" value="&lt;font color=&quot;#000000&quot;&gt;CU3:&lt;/font&gt;&lt;div&gt;&lt;font color=&quot;#000000&quot;&gt;Registrarse&lt;/font&gt;&lt;/div&gt;" style="ellipse;whiteSpace=wrap;html=1;rounded=1;strokeWidth=1;fontSize=12;fillColor=#d5e8d4;strokeColor=#000000;" parent="_vKOgibNYJb6RkX7hGH7-1" vertex="1">
          <mxGeometry x="930" y="940" width="120" height="50" as="geometry" />
        </mxCell>
        <mxCell id="TgJ1OVLbd7r7_8nmqH_q-34" style="edgeStyle=none;rounded=0;orthogonalLoop=1;jettySize=auto;html=1;fontSize=12;fontColor=#000000;strokeColor=#000000;entryX=0;entryY=0.5;entryDx=0;entryDy=0;exitX=0.5;exitY=0.5;exitDx=0;exitDy=0;exitPerimeter=0;" parent="_vKOgibNYJb6RkX7hGH7-1" source="TgJ1OVLbd7r7_8nmqH_q-3" target="TgJ1OVLbd7r7_8nmqH_q-32" edge="1">
          <mxGeometry relative="1" as="geometry">
            <mxPoint x="830" y="981" as="sourcePoint" />
            <mxPoint x="950" y="920" as="targetPoint" />
          </mxGeometry>
        </mxCell>
        <mxCell id="TgJ1OVLbd7r7_8nmqH_q-41" value="&lt;font color=&quot;#000000&quot;&gt;CU5:&lt;/font&gt;&lt;div&gt;&lt;font color=&quot;#000000&quot;&gt;Contactar con gestor&lt;/font&gt;&lt;/div&gt;" style="ellipse;whiteSpace=wrap;html=1;rounded=1;strokeWidth=1;fontSize=12;fillColor=#d5e8d4;strokeColor=#000000;" parent="_vKOgibNYJb6RkX7hGH7-1" vertex="1">
          <mxGeometry x="940" y="1060" width="120" height="50" as="geometry" />
        </mxCell>
        <mxCell id="TgJ1OVLbd7r7_8nmqH_q-42" style="edgeStyle=none;rounded=0;orthogonalLoop=1;jettySize=auto;html=1;fontSize=12;fontColor=#000000;strokeColor=#000000;entryX=0;entryY=0.5;entryDx=0;entryDy=0;exitX=0.657;exitY=0.783;exitDx=0;exitDy=0;exitPerimeter=0;" parent="_vKOgibNYJb6RkX7hGH7-1" source="TgJ1OVLbd7r7_8nmqH_q-3" target="TgJ1OVLbd7r7_8nmqH_q-41" edge="1">
          <mxGeometry relative="1" as="geometry">
            <mxPoint x="835" y="990" as="sourcePoint" />
            <mxPoint x="950" y="1035" as="targetPoint" />
          </mxGeometry>
        </mxCell>
        <mxCell id="TgJ1OVLbd7r7_8nmqH_q-43" value="&lt;font color=&quot;#000000&quot;&gt;CU15:&lt;/font&gt;&lt;div&gt;&lt;font color=&quot;#000000&quot;&gt;Dejar reseÃ±a&lt;/font&gt;&lt;/div&gt;" style="ellipse;whiteSpace=wrap;html=1;rounded=1;strokeWidth=1;fontSize=12;fillColor=#d5e8d4;strokeColor=#000000;" parent="_vKOgibNYJb6RkX7hGH7-1" vertex="1">
          <mxGeometry x="920" y="802" width="120" height="50" as="geometry" />
        </mxCell>
        <mxCell id="TgJ1OVLbd7r7_8nmqH_q-44" style="edgeStyle=none;rounded=0;orthogonalLoop=1;jettySize=auto;html=1;fontSize=12;fontColor=#000000;strokeColor=#000000;entryX=0;entryY=0.5;entryDx=0;entryDy=0;exitX=0.628;exitY=0.655;exitDx=0;exitDy=0;exitPerimeter=0;" parent="_vKOgibNYJb6RkX7hGH7-1" source="TgJ1OVLbd7r7_8nmqH_q-0" target="TgJ1OVLbd7r7_8nmqH_q-43" edge="1">
          <mxGeometry relative="1" as="geometry">
            <mxPoint x="840" y="890" as="sourcePoint" />
            <mxPoint x="940" y="829" as="targetPoint" />
          </mxGeometry>
        </mxCell>
        <mxCell id="TgJ1OVLbd7r7_8nmqH_q-46" value="&lt;font color=&quot;#000000&quot;&gt;includes&lt;/font&gt;" style="edgeLabel;html=1;align=center;verticalAlign=middle;resizable=0;points=[];fontSize=12;strokeColor=#000000;" parent="_vKOgibNYJb6RkX7hGH7-1" vertex="1" connectable="0">
          <mxGeometry x="1094.2704319938116" y="645.700922487192" as="geometry" />
        </mxCell>
        <mxCell id="TgJ1OVLbd7r7_8nmqH_q-47" value="&lt;font color=&quot;#000000&quot;&gt;CU14:&lt;/font&gt;&lt;div&gt;&lt;font color=&quot;#000000&quot;&gt;Obtener tarifas&lt;/font&gt;&lt;/div&gt;" style="ellipse;whiteSpace=wrap;html=1;rounded=1;strokeWidth=1;fontSize=12;fillColor=#d5e8d4;strokeColor=#000000;" parent="_vKOgibNYJb6RkX7hGH7-1" vertex="1">
          <mxGeometry x="1147.25" y="680" width="120" height="50" as="geometry" />
        </mxCell>
        <mxCell id="TgJ1OVLbd7r7_8nmqH_q-48" style="edgeStyle=none;rounded=0;jumpStyle=arc;orthogonalLoop=1;jettySize=auto;html=1;dashed=1;dashPattern=1 4;fontSize=12;fontColor=#000000;strokeColor=#000000;entryX=0;entryY=0.5;entryDx=0;entryDy=0;" parent="_vKOgibNYJb6RkX7hGH7-1" target="TgJ1OVLbd7r7_8nmqH_q-8" edge="1">
          <mxGeometry relative="1" as="geometry">
            <mxPoint x="1040" y="636" as="sourcePoint" />
            <mxPoint x="1157" y="690" as="targetPoint" />
          </mxGeometry>
        </mxCell>
        <mxCell id="TgJ1OVLbd7r7_8nmqH_q-50" value="&lt;font color=&quot;#000000&quot;&gt;CU6:&lt;/font&gt;&lt;div&gt;&lt;font color=&quot;#000000&quot;&gt;Obtener localizaciÃ³n&lt;/font&gt;&lt;/div&gt;" style="ellipse;whiteSpace=wrap;html=1;rounded=1;strokeWidth=1;fontSize=12;fillColor=#d5e8d4;strokeColor=#000000;" parent="_vKOgibNYJb6RkX7hGH7-1" vertex="1">
          <mxGeometry x="930" y="1120" width="120" height="50" as="geometry" />
        </mxCell>
        <mxCell id="TgJ1OVLbd7r7_8nmqH_q-51" style="edgeStyle=none;rounded=0;orthogonalLoop=1;jettySize=auto;html=1;fontSize=12;fontColor=#000000;strokeColor=#000000;entryX=0;entryY=0.5;entryDx=0;entryDy=0;exitX=1;exitY=1;exitDx=0;exitDy=0;exitPerimeter=0;" parent="_vKOgibNYJb6RkX7hGH7-1" source="TgJ1OVLbd7r7_8nmqH_q-3" target="TgJ1OVLbd7r7_8nmqH_q-50" edge="1">
          <mxGeometry relative="1" as="geometry">
            <mxPoint x="835" y="1028.5" as="sourcePoint" />
            <mxPoint x="955" y="1066.5" as="targetPoint" />
          </mxGeometry>
        </mxCell>
        <mxCell id="TgJ1OVLbd7r7_8nmqH_q-52" value="&lt;font color=&quot;#000000&quot;&gt;CU7:&lt;/font&gt;&lt;div&gt;&lt;font color=&quot;#000000&quot;&gt;Obtener fiestas y gastronomia&lt;/font&gt;&lt;/div&gt;" style="ellipse;whiteSpace=wrap;html=1;rounded=1;strokeWidth=1;fontSize=12;fillColor=#d5e8d4;strokeColor=#000000;" parent="_vKOgibNYJb6RkX7hGH7-1" vertex="1">
          <mxGeometry x="1070" y="980" width="120" height="50" as="geometry" />
        </mxCell>
        <mxCell id="TgJ1OVLbd7r7_8nmqH_q-53" style="edgeStyle=none;rounded=0;orthogonalLoop=1;jettySize=auto;html=1;fontSize=12;fontColor=#000000;strokeColor=#000000;entryX=0.016;entryY=0.339;entryDx=0;entryDy=0;entryPerimeter=0;exitX=0.5;exitY=0.5;exitDx=0;exitDy=0;exitPerimeter=0;" parent="_vKOgibNYJb6RkX7hGH7-1" source="TgJ1OVLbd7r7_8nmqH_q-3" target="TgJ1OVLbd7r7_8nmqH_q-52" edge="1">
          <mxGeometry relative="1" as="geometry">
            <mxPoint x="830" y="980" as="sourcePoint" />
            <mxPoint x="950" y="1035" as="targetPoint" />
          </mxGeometry>
        </mxCell>
        <mxCell id="TgJ1OVLbd7r7_8nmqH_q-54" style="edgeStyle=none;rounded=0;orthogonalLoop=1;jettySize=auto;html=1;fontSize=12;fontColor=#000000;strokeColor=#000000;entryX=0;entryY=0.5;entryDx=0;entryDy=0;exitX=0.5;exitY=0.5;exitDx=0;exitDy=0;exitPerimeter=0;" parent="_vKOgibNYJb6RkX7hGH7-1" source="TgJ1OVLbd7r7_8nmqH_q-3" target="TgJ1OVLbd7r7_8nmqH_q-55" edge="1">
          <mxGeometry relative="1" as="geometry">
            <mxPoint x="860" y="1020" as="sourcePoint" />
            <mxPoint x="1074.99" y="1074.98" as="targetPoint" />
            <Array as="points">
              <mxPoint x="970" y="1050" />
            </Array>
          </mxGeometry>
        </mxCell>
        <mxCell id="TgJ1OVLbd7r7_8nmqH_q-55" value="&lt;font color=&quot;#000000&quot;&gt;CU8:Obtener recomendaciones turÃ­sticas&lt;/font&gt;" style="ellipse;whiteSpace=wrap;html=1;rounded=1;strokeWidth=1;fontSize=12;fillColor=#d5e8d4;strokeColor=#000000;" parent="_vKOgibNYJb6RkX7hGH7-1" vertex="1">
          <mxGeometry x="1080" y="1040" width="120" height="50" as="geometry" />
        </mxCell>
        <mxCell id="TgJ1OVLbd7r7_8nmqH_q-56" value="&lt;font color=&quot;#000000&quot;&gt;CU19:&lt;/font&gt;&lt;div&gt;&lt;font color=&quot;#000000&quot;&gt;Raspar datos web&lt;/font&gt;&lt;/div&gt;" style="ellipse;whiteSpace=wrap;html=1;rounded=1;strokeWidth=1;fontSize=12;fillColor=#dae8fc;strokeColor=#000000;" parent="_vKOgibNYJb6RkX7hGH7-1" vertex="1">
          <mxGeometry x="1286" y="846" width="120" height="50" as="geometry" />
        </mxCell>
        <mxCell id="TgJ1OVLbd7r7_8nmqH_q-57" value="&lt;font color=&quot;#000000&quot;&gt;CU21:&lt;/font&gt;&lt;div&gt;&lt;font color=&quot;#000000&quot;&gt;Extraer datos RR.SS&lt;/font&gt;&lt;/div&gt;" style="ellipse;whiteSpace=wrap;html=1;rounded=1;strokeWidth=1;fontSize=12;fillColor=#dae8fc;strokeColor=#000000;" parent="_vKOgibNYJb6RkX7hGH7-1" vertex="1">
          <mxGeometry x="1466" y="786" width="120" height="50" as="geometry" />
        </mxCell>
        <mxCell id="TgJ1OVLbd7r7_8nmqH_q-58" style="edgeStyle=none;rounded=0;jumpStyle=arc;orthogonalLoop=1;jettySize=auto;html=1;fontSize=12;fontColor=#000000;strokeColor=#000000;entryX=0;entryY=0.5;entryDx=0;entryDy=0;exitX=0;exitY=1;exitDx=0;exitDy=0;exitPerimeter=0;" parent="_vKOgibNYJb6RkX7hGH7-1" source="_vKOgibNYJb6RkX7hGH7-37" target="TgJ1OVLbd7r7_8nmqH_q-56" edge="1">
          <mxGeometry relative="1" as="geometry">
            <mxPoint x="1481" y="1027" as="sourcePoint" />
            <mxPoint x="1375" y="995" as="targetPoint" />
            <Array as="points">
              <mxPoint x="1286" y="776" />
            </Array>
          </mxGeometry>
        </mxCell>
        <mxCell id="TgJ1OVLbd7r7_8nmqH_q-59" style="edgeStyle=none;rounded=0;jumpStyle=arc;orthogonalLoop=1;jettySize=auto;html=1;fontSize=12;fontColor=#000000;strokeColor=#000000;entryX=0;entryY=0.5;entryDx=0;entryDy=0;" parent="_vKOgibNYJb6RkX7hGH7-1" target="TgJ1OVLbd7r7_8nmqH_q-57" edge="1">
          <mxGeometry relative="1" as="geometry">
            <mxPoint x="1336" y="756" as="sourcePoint" />
            <mxPoint x="1386" y="1051" as="targetPoint" />
          </mxGeometry>
        </mxCell>
        <mxCell id="TgJ1OVLbd7r7_8nmqH_q-64" value="&lt;font color=&quot;#000000&quot;&gt;CU9:&lt;/font&gt;&lt;div&gt;&lt;font color=&quot;#000000&quot;&gt;Obtener reseÃ±as&lt;/font&gt;&lt;/div&gt;" style="ellipse;whiteSpace=wrap;html=1;rounded=1;strokeWidth=1;fontSize=12;fillColor=#d5e8d4;strokeColor=#000000;" parent="_vKOgibNYJb6RkX7hGH7-1" vertex="1">
          <mxGeometry x="1080" y="1100" width="120" height="50" as="geometry" />
        </mxCell>
        <mxCell id="TgJ1OVLbd7r7_8nmqH_q-65" style="edgeStyle=none;rounded=0;orthogonalLoop=1;jettySize=auto;html=1;fontSize=12;fontColor=#000000;strokeColor=#000000;entryX=0;entryY=0.5;entryDx=0;entryDy=0;exitX=0.55;exitY=0.639;exitDx=0;exitDy=0;exitPerimeter=0;" parent="_vKOgibNYJb6RkX7hGH7-1" source="TgJ1OVLbd7r7_8nmqH_q-3" target="TgJ1OVLbd7r7_8nmqH_q-64" edge="1">
          <mxGeometry relative="1" as="geometry">
            <mxPoint x="850" y="1020" as="sourcePoint" />
            <mxPoint x="940" y="1155" as="targetPoint" />
            <Array as="points">
              <mxPoint x="950" y="1110" />
            </Array>
          </mxGeometry>
        </mxCell>
        <mxCell id="TgJ1OVLbd7r7_8nmqH_q-66" value="&lt;font color=&quot;#000000&quot;&gt;CU10:&lt;/font&gt;&lt;div&gt;&lt;font color=&quot;#000000&quot;&gt;Obtener actividades&lt;/font&gt;&lt;/div&gt;" style="ellipse;whiteSpace=wrap;html=1;rounded=1;strokeWidth=1;fontSize=12;fillColor=#d5e8d4;strokeColor=#000000;" parent="_vKOgibNYJb6RkX7hGH7-1" vertex="1">
          <mxGeometry x="1060" y="1180" width="120" height="50" as="geometry" />
        </mxCell>
        <mxCell id="TgJ1OVLbd7r7_8nmqH_q-67" style="edgeStyle=none;rounded=0;orthogonalLoop=1;jettySize=auto;html=1;fontSize=12;fontColor=#000000;strokeColor=#000000;entryX=0;entryY=0.5;entryDx=0;entryDy=0;" parent="_vKOgibNYJb6RkX7hGH7-1" target="TgJ1OVLbd7r7_8nmqH_q-66" edge="1">
          <mxGeometry relative="1" as="geometry">
            <mxPoint x="730" y="1020" as="sourcePoint" />
            <mxPoint x="940" y="1155" as="targetPoint" />
            <Array as="points">
              <mxPoint x="890" y="1150" />
            </Array>
          </mxGeometry>
        </mxCell>
        <mxCell id="TgJ1OVLbd7r7_8nmqH_q-72" style="edgeStyle=none;rounded=0;orthogonalLoop=1;jettySize=auto;html=1;fontSize=12;fontColor=#000000;strokeColor=#000000;entryX=0.5;entryY=0;entryDx=0;entryDy=0;entryPerimeter=0;exitX=0.5;exitY=0.5;exitDx=0;exitDy=0;exitPerimeter=0;" parent="_vKOgibNYJb6RkX7hGH7-1" source="TgJ1OVLbd7r7_8nmqH_q-0" target="TgJ1OVLbd7r7_8nmqH_q-3" edge="1">
          <mxGeometry relative="1" as="geometry">
            <mxPoint x="750" y="1008" as="sourcePoint" />
            <mxPoint x="950" y="920" as="targetPoint" />
          </mxGeometry>
        </mxCell>
        <mxCell id="TgJ1OVLbd7r7_8nmqH_q-73" style="edgeStyle=none;rounded=0;orthogonalLoop=1;jettySize=auto;html=1;fontSize=12;fontColor=#000000;strokeColor=#000000;entryX=0.25;entryY=0.1;entryDx=0;entryDy=0;entryPerimeter=0;exitX=0.333;exitY=0.833;exitDx=0;exitDy=0;exitPerimeter=0;" parent="_vKOgibNYJb6RkX7hGH7-1" source="_vKOgibNYJb6RkX7hGH7-7" target="TgJ1OVLbd7r7_8nmqH_q-3" edge="1">
          <mxGeometry relative="1" as="geometry">
            <mxPoint x="830" y="880" as="sourcePoint" />
            <mxPoint x="735" y="985" as="targetPoint" />
            <Array as="points">
              <mxPoint x="760" y="780" />
            </Array>
          </mxGeometry>
        </mxCell>
        <mxCell id="TgJ1OVLbd7r7_8nmqH_q-75" style="edgeStyle=none;rounded=0;orthogonalLoop=1;jettySize=auto;html=1;fontSize=12;fontColor=#000000;strokeColor=#000000;entryX=0;entryY=0.3333333333333333;entryDx=0;entryDy=0;entryPerimeter=0;exitX=0.161;exitY=0.811;exitDx=0;exitDy=0;exitPerimeter=0;" parent="_vKOgibNYJb6RkX7hGH7-1" source="TgJ1OVLbd7r7_8nmqH_q-4" target="TgJ1OVLbd7r7_8nmqH_q-3" edge="1">
          <mxGeometry relative="1" as="geometry">
            <mxPoint x="830" y="790" as="sourcePoint" />
            <mxPoint x="728" y="991" as="targetPoint" />
            <Array as="points">
              <mxPoint x="710" y="536" />
            </Array>
          </mxGeometry>
        </mxCell>
        <mxCell id="2RdNbCRzU_1im8QVYxyr-3" style="edgeStyle=none;rounded=0;jumpStyle=arc;orthogonalLoop=1;jettySize=auto;html=1;fontSize=12;fontColor=#000000;strokeColor=#000000;entryX=0;entryY=0.5;entryDx=0;entryDy=0;" parent="_vKOgibNYJb6RkX7hGH7-1" target="2RdNbCRzU_1im8QVYxyr-4" edge="1">
          <mxGeometry relative="1" as="geometry">
            <mxPoint x="1346" y="766" as="sourcePoint" />
            <mxPoint x="1476" y="876" as="targetPoint" />
          </mxGeometry>
        </mxCell>
        <mxCell id="2RdNbCRzU_1im8QVYxyr-4" value="&lt;font color=&quot;#000000&quot;&gt;CU20:&lt;/font&gt;&lt;div&gt;&lt;font color=&quot;#000000&quot;&gt;Extraer datos actividades&lt;/font&gt;&lt;/div&gt;" style="ellipse;whiteSpace=wrap;html=1;rounded=1;strokeWidth=1;fontSize=12;fillColor=#dae8fc;strokeColor=#000000;" parent="_vKOgibNYJb6RkX7hGH7-1" vertex="1">
          <mxGeometry x="1436" y="846" width="120" height="50" as="geometry" />
        </mxCell>
      </root>
    </mxGraphModel>
  </diagram>
</mxfile>
